<?xml version="1.0" standalone="no"?><!DOCTYPE svg PUBLIC "-//W3C//DTD SVG 1.1//EN" "http://www.w3.org/Graphics/SVG/1.1/DTD/svg11.dtd"><svg t="1769092204861" class="icon" viewBox="0 0 1024 1024" version="1.1" xmlns="http://www.w3.org/2000/svg" p-id="8145" xmlns:xlink="http://www.w3.org/1999/xlink" width="200" height="200"><path d="M0 0h262.069735v71.408647H0z" fill="#f4ea2a" p-id="8146"></path><path d="M0 0h71.408647v262.069735H0zM761.930265 951.877266h262.069735v71.408648h-262.069735z" fill="#f4ea2a" p-id="8147"></path><path d="M951.877266 761.930265h71.408648v262.069735h-71.408648zM761.930265 0h262.069735v71.408647h-262.069735z" fill="#f4ea2a" p-id="8148"></path><path d="M951.877266 0h71.408648v262.069735h-71.408648zM0 951.877266h262.069735v71.408648H0zM380.608089 951.877266H642.677824v71.408648H380.608089zM380.608089 0H642.677824v71.408647H380.608089z" fill="#f4ea2a" p-id="8149"></path><path d="M0 761.930265h71.408647v262.069735H0zM0 380.608089h71.408647V642.677824H0zM951.877266 380.608089h71.408648V642.677824h-71.408648z" fill="#f4ea2a" p-id="8150"></path></svg>