<?xml version="1.0" encoding="utf-8"?>
<!-- Generator: $$$/GeneralStr/196=Adobe Illustrator 27.6.0, SVG Export Plug-In . SVG Version: 6.00 Build 0)  -->
<svg version="1.1" id="图层_1" xmlns="http://www.w3.org/2000/svg" xmlns:xlink="http://www.w3.org/1999/xlink" x="0px" y="0px"
	 viewBox="0 0 200 200" style="enable-background:new 0 0 200 200;" xml:space="preserve">
<style type="text/css">
	.st0{fill:#FFFFFF;}
</style>
<path class="st0" d="M73.9,199.4c-0.8,0-1.6-0.3-2.2-0.9c-1.2-1.2-1.2-3.1,0-4.4l25.7-25.7c1.2-1.2,3.1-1.2,4.4,0l25.7,25.7
	c1.2,1.2,1.2,3.1,0,4.4c-1.2,1.2-3.1,1.2-4.4,0L99.6,175l-23.5,23.5C75.5,199.1,74.7,199.4,73.9,199.4z M191.8,149.4H8.1
	c-4,0-7.5-3.4-7.5-7.5V7.5C0.6,3.4,4,0,8.1,0h183.7c4.2,0,7.5,3.4,7.5,7.5v134.3C199.4,146,196,149.4,191.8,149.4L191.8,149.4z
	 M8.1,6.2c-0.6,0-1.2,0.6-1.2,1.2v134.3c0,0.8,0.6,1.4,1.2,1.4h183.7c0.8,0,1.2-0.6,1.2-1.2V7.5c0-0.8-0.6-1.2-1.2-1.2
	C191.8,6.2,8.1,6.2,8.1,6.2z"/>
<path class="st0" d="M184.3,137.4H15.1c-1.7,0-3.1-1.4-3.1-3.1V15.1c0-1.7,1.4-3.1,3.1-3.1h169.2c1.7,0,3.1,1.4,3.1,3.1v119.4
	C187.4,136,186,137.4,184.3,137.4L184.3,137.4z M18.2,131.2h163v-113h-163C18.2,18.2,18.2,131.2,18.2,131.2z"/>
</svg>
