<?xml version="1.0" encoding="utf-8"?>
<!-- Generator: $$$/GeneralStr/196=Adobe Illustrator 27.6.0, SVG Export Plug-In . SVG Version: 6.00 Build 0)  -->
<svg version="1.1" id="图层_1" xmlns="http://www.w3.org/2000/svg" xmlns:xlink="http://www.w3.org/1999/xlink" x="0px" y="0px"
	 viewBox="0 0 200 200" style="enable-background:new 0 0 200 200;" xml:space="preserve">
<style type="text/css">
	.st0{fill:#131313;}
	.st1{fill:#FF4C47;}
</style>
<path class="st0" d="M73.9,199.4c-0.8,0-1.6-0.3-2.2-0.9c-1.2-1.2-1.2-3.1,0-4.4l25.7-25.7c1.2-1.2,3.1-1.2,4.4,0l25.7,25.7
	c1.2,1.2,1.2,3.1,0,4.4c-1.2,1.2-3.1,1.2-4.4,0L99.6,175l-23.5,23.5C75.5,199.1,74.7,199.4,73.9,199.4z M191.8,149.4H8.1
	c-4,0-7.5-3.4-7.5-7.5V7.5C0.6,3.4,4,0,8.1,0h183.7c4.2,0,7.5,3.4,7.5,7.5v134.3C199.4,146,196,149.4,191.8,149.4L191.8,149.4z
	 M8.1,6.2c-0.6,0-1.2,0.6-1.2,1.2v134.3c0,0.8,0.6,1.4,1.2,1.4h183.7c0.8,0,1.2-0.6,1.2-1.2V7.5c0-0.8-0.6-1.2-1.2-1.2
	C191.8,6.2,8.1,6.2,8.1,6.2z"/>
<path class="st0" d="M184.3,137.4H15.1c-1.7,0-3.1-1.4-3.1-3.1V15.1c0-1.7,1.4-3.1,3.1-3.1h169.2c1.7,0,3.1,1.4,3.1,3.1v119.4
	C187.4,136,186,137.4,184.3,137.4L184.3,137.4z M18.2,131.2h163v-113h-163V131.2z"/>
<path class="st0" d="M171.8,112.4h-31.4c-1.7,0-3.1-1.4-3.1-3.1s1.4-3.1,3.1-3.1h31.4c1.7,0,3.1,1.4,3.1,3.1
	S173.5,112.4,171.8,112.4z M152.1,125.8h-11.7c-1.7,0-3.1-1.4-3.1-3.1s1.4-3.1,3.1-3.1h11.7c1.7,0,3.1,1.4,3.1,3.1
	S153.8,125.8,152.1,125.8z M92.8,105.5c-0.8,0-1.6-0.3-2.2-0.9L48.7,62.9c-1.2-1.2-1.2-3.1,0-4.4c1.2-1.2,3.1-1.2,4.4,0l41.7,41.7
	c1.2,1.2,1.2,3.1,0,4.4C94.3,105.4,93.5,105.5,92.8,105.5L92.8,105.5z M99.6,105.1c-0.5,0-1.1-0.2-1.6-0.5c-1.6-0.8-2-2.8-1.2-4.2
	l31.4-55.7c0.8-1.6,2.8-2,4.2-1.2c1.6,0.8,2,2.8,1.2,4.2l-31.3,55.9C101.8,104.4,100.7,105.1,99.6,105.1z"/>
<path class="st0" d="M56,111.1c-0.8,0-1.6-0.3-2.2-0.9c-1.2-1.2-1.2-3.3,0-4.4l39.5-38.6c1.2-1.2,3.3-1.2,4.4,0
	c1.2,1.2,1.2,3.3,0,4.4l-39.5,38.6C57.6,110.8,56.8,111.1,56,111.1z M146.6,68.6h-41.2c-1.7,0-3.1-1.4-3.1-3.1s1.4-3.1,3.1-3.1h41.1
	c1.7,0,3.1,1.4,3.1,3.1S148.3,68.6,146.6,68.6L146.6,68.6z M46.7,65.7c-4.8,0-8.9-3.9-8.9-8.9c0-4.8,3.9-8.9,8.9-8.9
	c4.8,0,8.9,3.9,8.9,8.9S51.7,65.7,46.7,65.7z M46.7,54.3c-1.4,0-2.6,1.1-2.6,2.6c0,1.4,1.1,2.6,2.6,2.6c1.4,0,2.6-1.1,2.6-2.6
	S48.2,54.3,46.7,54.3z M96.5,115.5c-4.8,0-8.9-3.9-8.9-8.9s3.9-8.9,8.9-8.9c4.8,0,8.9,3.9,8.9,8.9S101.5,115.5,96.5,115.5z
	 M96.5,104.1c-1.4,0-2.6,1.1-2.6,2.6c0,1.6,1.1,2.6,2.6,2.6c1.4,0,2.6-1.1,2.6-2.6S98.1,104.1,96.5,104.1z"/>
<path class="st1" d="M99.8,74.2c-4.8,0-8.9-3.9-8.9-8.9c0-4.8,3.9-8.9,8.9-8.9c5,0,8.9,3.9,8.9,8.9C108.5,70.4,104.6,74.2,99.8,74.2
	z M99.8,62.9c-1.4,0-2.6,1.1-2.6,2.6c0,1.4,1.1,2.6,2.6,2.6c1.6,0,2.6-1.1,2.6-2.6C102.3,64,101.2,62.9,99.8,62.9z M152.1,74.2
	c-4.8,0-8.9-3.9-8.9-8.9c0-4.8,3.9-8.9,8.9-8.9c5,0,8.9,3.9,8.9,8.9C160.9,70.4,157,74.2,152.1,74.2z M152.1,62.9
	c-1.4,0-2.6,1.1-2.6,2.6c0,1.4,1.1,2.6,2.6,2.6c1.6,0,2.6-1.2,2.6-2.6C154.7,64,153.5,62.9,152.1,62.9z"/>
<path class="st0" d="M133.4,49.3c-4.8,0-8.9-3.9-8.9-8.9s3.9-8.9,8.9-8.9c5,0,8.9,4,8.9,8.9S138.4,49.3,133.4,49.3z M133.4,38
	c-1.4,0-2.6,1.1-2.6,2.6c0,1.6,1.1,2.6,2.6,2.6c1.6,0,2.6-1.2,2.6-2.8C136,38.9,134.9,38,133.4,38z"/>
<path class="st1" d="M52.5,121.2c-4.8,0-8.9-3.9-8.9-8.9c0-4.8,3.9-8.9,8.9-8.9s8.9,3.9,8.9,8.9C61.3,117.2,57.3,121.2,52.5,121.2z
	 M52.5,109.9c-1.4,0-2.6,1.1-2.6,2.6c0,1.6,1.1,2.6,2.6,2.6c1.6,0,2.6-1.1,2.6-2.6S53.9,109.9,52.5,109.9z"/>
</svg>
