<?xml version="1.0" encoding="UTF-8"?>
<svg version="1.1" xmlns="http://www.w3.org/2000/svg" width="512" height="512">
<path d="M0 0 C1.41952217 -0.01058945 1.41952217 -0.01058945 2.86772156 -0.02139282 C42.38370862 -0.24928599 42.38370862 -0.24928599 58.8671875 3.203125 C59.84204102 3.40180176 60.81689453 3.60047852 61.82128906 3.80517578 C83.29989014 8.29811411 103.91006117 14.94484082 123.75 24.3203125 C127.06828442 25.86370938 130.30433626 27.3084417 133.8671875 28.203125 C136.86711479 26.91167522 136.86711479 26.91167522 139.8671875 25.203125 C146.25845051 23.63545672 152.03380808 24.18910339 157.8671875 27.25390625 C167.89256795 34.10593039 177.49130938 46.76340543 181.57885742 58.19311523 C184.16793371 65.12674289 188.62042123 69.45794483 193.9432373 74.48388672 C196.46670178 76.87202868 198.94299077 79.30787666 201.41796875 81.74609375 C202.14262833 82.45891006 202.14262833 82.45891006 202.88192749 83.18612671 C208.51036592 88.76595717 213.25997391 94.77645248 217.8671875 101.203125 C218.71737788 102.34867587 219.56897251 103.49318571 220.421875 104.63671875 C226.47239612 112.83039513 231.83361798 121.35321078 236.8671875 130.203125 C237.23166992 130.83492676 237.59615234 131.46672852 237.97167969 132.11767578 C259.50200605 169.73398737 269.32978485 212.45577788 269.2421875 255.515625 C269.24137177 257.02990082 269.24137177 257.02990082 269.24053955 258.57476807 C269.19977351 275.08436039 268.29248059 291.00094501 264.8671875 307.203125 C264.64756348 308.24500977 264.42793945 309.28689453 264.20166016 310.36035156 C254.10403965 356.65361811 231.74489992 399.06726221 198.8671875 433.203125 C198.23506348 433.86248047 197.60293945 434.52183594 196.95166016 435.20117188 C187.80721271 444.68942805 178.50984741 453.4293294 167.8671875 461.203125 C166.71613733 462.06118652 165.56509573 462.91925951 164.4140625 463.77734375 C156.22442769 469.81489896 147.72180474 475.19769802 138.8671875 480.203125 C138.15997559 480.6053125 137.45276367 481.0075 136.72412109 481.421875 C110.57718959 496.1428217 81.55524327 505.84377758 51.8671875 510.203125 C50.66473389 510.37972656 49.46228027 510.55632812 48.22338867 510.73828125 C36.50692905 512.3422685 24.86816586 512.60275844 13.0546875 512.578125 C12.06884674 512.57758118 11.08300598 512.57703735 10.06729126 512.57647705 C-54.97387863 512.41212044 -117.23224172 487.37507474 -164.1328125 442.203125 C-164.79216797 441.57100098 -165.45152344 440.93887695 -166.13085938 440.28759766 C-175.61911555 431.14315021 -184.3590169 421.84578491 -192.1328125 411.203125 C-192.99087402 410.05207483 -193.84894701 408.90103323 -194.70703125 407.75 C-200.74458646 399.56036519 -206.12738552 391.05774224 -211.1328125 382.203125 C-211.535 381.49591309 -211.9371875 380.78870117 -212.3515625 380.06005859 C-227.10502101 353.85538053 -236.63451584 324.91766114 -241.1328125 295.203125 C-241.31013916 294.08429932 -241.48746582 292.96547363 -241.67016602 291.81274414 C-243.35157591 280.09076553 -243.49015591 268.46813524 -243.4453125 256.640625 C-243.44207977 255.11001938 -243.44207977 255.11001938 -243.43878174 253.54849243 C-243.38914602 238.92101976 -243.14200962 224.57048662 -240.1328125 210.203125 C-239.93413574 209.22827148 -239.73545898 208.25341797 -239.53076172 207.24902344 C-229.20269178 157.87543369 -206.31172508 110.47171416 -169.28125 75.54296875 C-162.56679525 69.16688664 -157.23965797 64.0675366 -154.2109375 55.1015625 C-150.30533208 44.60171025 -141.03296426 32.66751664 -131.5703125 26.578125 C-124.53992997 23.76597199 -119.23797575 23.66122166 -112.17578125 26.4140625 C-108.0307605 28.01500742 -106.79378353 28.48328099 -102.46484375 26.6484375 C-100.95493353 25.88165831 -99.4486797 25.10765451 -97.9453125 24.328125 C-73.18371738 12.1052673 -46.47522032 4.71250295 -19.1328125 1.203125 C-18.13200401 1.07213158 -18.13200401 1.07213158 -17.11097717 0.93849182 C-11.39460774 0.24225009 -5.75538618 0.02856336 0 0 Z " fill="#CB754A" transform="translate(243.1328125,-0.203125)"/>
<path d="M0 0 C1.41952217 -0.01058945 1.41952217 -0.01058945 2.86772156 -0.02139282 C42.38370862 -0.24928599 42.38370862 -0.24928599 58.8671875 3.203125 C59.84204102 3.40180176 60.81689453 3.60047852 61.82128906 3.80517578 C83.29989014 8.29811411 103.91006117 14.94484082 123.75 24.3203125 C127.06828442 25.86370938 130.30433626 27.3084417 133.8671875 28.203125 C136.86711479 26.91167522 136.86711479 26.91167522 139.8671875 25.203125 C146.25845051 23.63545672 152.03380808 24.18910339 157.8671875 27.25390625 C167.89256795 34.10593039 177.49130938 46.76340543 181.57885742 58.19311523 C184.16793371 65.12674289 188.62042123 69.45794483 193.9432373 74.48388672 C196.46670178 76.87202868 198.94299077 79.30787666 201.41796875 81.74609375 C202.14262833 82.45891006 202.14262833 82.45891006 202.88192749 83.18612671 C208.51036592 88.76595717 213.25997391 94.77645248 217.8671875 101.203125 C218.71737788 102.34867587 219.56897251 103.49318571 220.421875 104.63671875 C226.47239612 112.83039513 231.83361798 121.35321078 236.8671875 130.203125 C237.23166992 130.83492676 237.59615234 131.46672852 237.97167969 132.11767578 C259.50200605 169.73398737 269.32978485 212.45577788 269.2421875 255.515625 C269.24137177 257.02990082 269.24137177 257.02990082 269.24053955 258.57476807 C269.19977351 275.08436039 268.29248059 291.00094501 264.8671875 307.203125 C264.64756348 308.24500977 264.42793945 309.28689453 264.20166016 310.36035156 C258.52559146 336.38269625 249.01126056 361.04250752 235.8671875 384.203125 C232.98677045 380.64945385 230.20968462 377.02794632 227.45214844 373.37915039 C218.45415845 361.49428306 208.92538634 350.20505608 198.8671875 339.203125 C194.99176397 339.7642723 193.24107122 341.50115056 190.4921875 344.203125 C173.92811245 359.48184722 152.65134974 366.67610286 131.8046875 374.140625 C130.70168304 374.53742462 129.59867859 374.93422424 128.46224976 375.3430481 C90.04049493 389.12446553 52.04927113 397.45720067 11.1171875 397.515625 C10.33697235 397.51911957 9.5567572 397.52261414 8.75289917 397.5262146 C0.13243458 397.54770465 -8.3853635 397.21897385 -16.9609375 396.30859375 C-17.70712341 396.23135574 -18.45330933 396.15411774 -19.22210693 396.07453918 C-31.49068257 394.6345899 -38.39137796 386.20955334 -46.1328125 377.203125 C-49.3984758 372.82824318 -51.8270359 368.14995694 -54.1328125 363.203125 C-54.596875 362.23246094 -55.0609375 361.26179688 -55.5390625 360.26171875 C-58.12167598 354.47445989 -60.05860485 348.51297032 -61.8828125 342.453125 C-62.09381592 341.75598389 -62.30481934 341.05884277 -62.5222168 340.34057617 C-63.88135303 335.63630282 -64.63037828 331.07455243 -65.1328125 326.203125 C-64.4728125 326.88375 -63.8128125 327.564375 -63.1328125 328.265625 C-62.13761471 329.24967211 -61.13700177 330.22825513 -60.1328125 331.203125 C-59.55144531 331.76902344 -58.97007812 332.33492188 -58.37109375 332.91796875 C-49.22449942 341.39665761 -39.94035549 344.22450911 -27.7578125 345.578125 C-15.05839108 344.26439175 -5.82513062 338.65918777 3.69140625 330.65625 C6.10737261 329.04271412 8.00934353 328.58350353 10.8671875 328.203125 C10.41562745 338.96271099 9.52808124 349.67256889 8.4921875 360.390625 C8.37834717 361.65543701 8.26450684 362.92024902 8.1472168 364.22338867 C8.02644775 365.42713135 7.90567871 366.63087402 7.78125 367.87109375 C7.6258374 369.48407349 7.6258374 369.48407349 7.46728516 371.12963867 C6.53137367 375.92304376 4.88630732 379.25857493 1.3046875 382.578125 C-1.1328125 384.203125 -1.1328125 384.203125 -3.1328125 384.203125 C-3.1328125 384.863125 -3.1328125 385.523125 -3.1328125 386.203125 C2.37097425 388.05239735 7.2055605 388.51070338 12.9921875 388.453125 C13.77722656 388.46085937 14.56226563 388.46859375 15.37109375 388.4765625 C19.60351011 388.46228791 23.0699919 388.30118638 26.8671875 386.203125 C27.1971875 385.543125 27.5271875 384.883125 27.8671875 384.203125 C27.1246875 384.038125 26.3821875 383.873125 25.6171875 383.703125 C21.65676605 381.54289512 20.3780936 378.28720538 18.8671875 374.203125 C18.08808935 370.60953257 17.7192406 367.01815466 17.3828125 363.359375 C17.27749207 362.34967651 17.17217163 361.33997803 17.06365967 360.29968262 C16.73349896 357.10212171 16.42502533 353.90290415 16.1171875 350.703125 C15.89596517 348.5232915 15.67332326 346.34360157 15.44921875 344.1640625 C14.90544458 338.8453004 14.37941679 333.5250127 13.8671875 328.203125 C19.15928806 328.89599595 22.00480099 330.53974553 25.9921875 333.953125 C37.17538991 342.8837791 47.44907718 345.652604 61.66699219 344.48974609 C71.32827709 343.23116326 80.61253782 337.54942822 86.6484375 329.96484375 C91.79219126 322.46353618 94.96214628 315.86841358 95.02832031 306.68530273 C95.03792786 305.60325058 95.0475354 304.52119843 95.05743408 303.40635681 C95.06168396 302.24487625 95.06593384 301.08339569 95.0703125 299.88671875 C95.07601257 298.67927505 95.08171265 297.47183136 95.08758545 296.22779846 C95.09702606 293.67164991 95.1035657 291.11548925 95.10742188 288.55932617 C95.11709111 284.67930369 95.14810952 280.7998193 95.1796875 276.91992188 C95.18622178 274.42969063 95.19147058 271.93945561 95.1953125 269.44921875 C95.2138327 267.72825233 95.2138327 267.72825233 95.23272705 265.97251892 C95.18500172 248.41416176 88.79035753 233.07115001 76.8671875 220.203125 C76.22523438 219.50703125 75.58328125 218.8109375 74.921875 218.09375 C70.49745883 213.75344821 65.65334684 210.76225324 60.1796875 207.953125 C59.56931641 207.63585449 58.95894531 207.31858398 58.33007812 206.99169922 C56.20695677 205.95995766 54.06380101 205.0680666 51.8671875 204.203125 C50.96210449 203.83832031 50.05702148 203.47351563 49.12451172 203.09765625 C38.20519753 199.33225998 27.22247181 199.59629086 15.79052734 199.68164062 C12.37395243 199.70308254 8.95947987 199.68175733 5.54296875 199.65625 C-16.82930487 199.62732894 -34.65370388 204.39187194 -51.25 220.22265625 C-62.29895645 231.8090133 -67.70626568 245.56014353 -70.1328125 261.203125 C-70.4628125 261.203125 -70.7928125 261.203125 -71.1328125 261.203125 C-71.30320012 252.09401328 -70.83930636 243.19773438 -69.8828125 234.140625 C-69.77324219 232.98369141 -69.66367188 231.82675781 -69.55078125 230.63476562 C-67.7067977 212.7869459 -63.32792241 195.39488261 -59.0078125 178.015625 C-58.52092034 176.04202982 -58.03452145 174.06831289 -57.54858398 172.09448242 C-56.55717206 168.06904343 -55.5638427 164.04408604 -54.56884766 160.01953125 C-52.63126769 152.17789399 -50.71208726 144.33179277 -48.79782104 136.48443604 C-48.19300521 134.00617077 -47.58688536 131.52822671 -46.98071289 129.05029297 C-44.64711496 119.49749678 -42.35241202 109.93613397 -40.0859375 100.3671875 C-39.55861866 98.14735431 -39.03119354 95.92754635 -38.50366211 93.70776367 C-37.49777583 89.47509547 -36.49963225 85.24071028 -35.50610352 81.00512695 C-26.95517719 44.84785437 -26.95517719 44.84785437 -23.1328125 37.203125 C-45.01649954 34.02004325 -62.78197831 37.59039153 -81.1328125 50.203125 C-81.94117554 49.60624878 -81.94117554 49.60624878 -82.76586914 48.99731445 C-85.24194078 47.16952918 -87.71862223 45.34257191 -90.1953125 43.515625 C-91.04287109 42.88978516 -91.89042969 42.26394531 -92.76367188 41.61914062 C-97.52593441 38.10720185 -102.30720583 34.62753787 -107.1328125 31.203125 C-106.1328125 28.203125 -106.1328125 28.203125 -102.7578125 26.2578125 C-101.22331125 25.51623641 -99.68088671 24.79093312 -98.1328125 24.078125 C-97.29194092 23.68778076 -96.45106934 23.29743652 -95.5847168 22.89526367 C-71.23563128 11.8576303 -45.63496732 4.60465709 -19.1328125 1.203125 C-18.13200401 1.07213158 -18.13200401 1.07213158 -17.11097717 0.93849182 C-11.39460774 0.24225009 -5.75538618 0.02856336 0 0 Z " fill="#DB8658" transform="translate(243.1328125,-0.203125)"/>
<path d="M0 0 C0.86625 0.763125 1.7325 1.52625 2.625 2.3125 C4.07863765 3.54721632 5.53790062 4.77531547 7 6 C8.00804687 6.84691406 9.01609375 7.69382812 10.0546875 8.56640625 C11.20206371 9.50390455 12.35051329 10.44009062 13.5 11.375 C14.01385254 11.80852783 14.52770508 12.24205566 15.05712891 12.6887207 C28.09807713 23.16401661 44.16536252 28.33013015 59.69628906 33.8737793 C63.36471125 35.18382574 67.02644157 36.51132783 70.6875 37.84179688 C132.00425648 60.01414311 196.39485935 66.56683127 260 50 C261.00836914 49.74186523 262.01673828 49.48373047 263.05566406 49.21777344 C279.23956451 44.98699674 294.92392011 39.28872841 310.625 33.5625 C311.60723541 33.20795746 312.58947083 32.85341492 313.60147095 32.48812866 C329.04644667 26.89213233 345.12855411 20.96965985 357.8125 10.1875 C358.37001953 9.73697266 358.92753906 9.28644531 359.50195312 8.82226562 C361.89126989 6.87046941 364.07685904 4.91414831 366.13671875 2.61328125 C367.05904297 1.81470703 367.05904297 1.81470703 368 1 C372.69620381 1.56307129 375.05834232 4.84376124 378.0625 8.1875 C378.63468262 8.815354 379.20686523 9.44320801 379.79638672 10.09008789 C385.02314296 15.89397418 389.9025101 21.92942369 394.60449219 28.16308594 C396.10459475 30.13767861 397.63377947 32.08778865 399.1640625 34.0390625 C400.19388224 35.37930714 401.2225585 36.72043132 402.25 38.0625 C402.98597412 38.99147095 402.98597412 38.99147095 403.73681641 39.93920898 C405.62638743 42.45164369 406.97785766 44.26464134 407.07421875 47.46484375 C405.56026542 51.03777361 403.65433622 54.2370177 401.5625 57.5 C401.11511475 58.20487549 400.66772949 58.90975098 400.20678711 59.63598633 C396.21040037 65.84084734 391.89571347 71.72757839 387.24902344 77.45849609 C386.04191622 78.94826837 384.85263672 80.45243144 383.6640625 81.95703125 C370.9372982 97.59449086 356.37810489 112.21109496 340 124 C338.85335128 124.85176801 337.70753275 125.70465463 336.5625 126.55859375 C328.37089798 132.60603133 319.86096602 137.99098412 311 143 C309.93918213 143.60328125 309.93918213 143.60328125 308.85693359 144.21875 C282.71000209 158.9396967 253.68805577 168.64065258 224 173 C222.19631958 173.26490234 222.19631958 173.26490234 220.35620117 173.53515625 C208.63974155 175.1391435 197.00097836 175.39963344 185.1875 175.375 C184.20165924 175.37445618 183.21581848 175.37391235 182.20010376 175.37335205 C117.15893387 175.20899544 54.90057078 150.17194974 8 105 C7.34064453 104.36787598 6.68128906 103.73575195 6.00195312 103.08447266 C-3.48280646 93.94339511 -12.24418345 84.65249422 -20 74 C-20.43393066 73.41089844 -20.86786133 72.82179688 -21.31494141 72.21484375 C-23.8796868 68.72611186 -26.39585867 65.20806601 -28.85986328 61.64746094 C-29.97010257 60.04320083 -31.09231892 58.44725036 -32.21484375 56.8515625 C-33.19130859 55.40910156 -33.19130859 55.40910156 -34.1875 53.9375 C-34.75855469 53.10089844 -35.32960937 52.26429688 -35.91796875 51.40234375 C-37.2966359 48.34140406 -37.12064955 47.14551418 -36 44 C-26.61405633 27.84797558 -13.15636769 13.15636769 0 0 Z " fill="#B75C34" transform="translate(71,337)"/>
<path d="M0 0 C1.4487149 -0.02409439 1.4487149 -0.02409439 2.92669678 -0.04867554 C7.36892598 -0.09378242 11.81101199 -0.13426037 16.25341797 -0.15722656 C18.57676283 -0.17367673 20.90005943 -0.20081898 23.22314453 -0.23925781 C46.64095572 -0.62392404 66.67699143 2.65045301 84.40795898 19.29223633 C97.26715134 32.08048142 104.16610713 48.43492093 104.3240509 66.51977539 C104.32268379 68.24514526 104.32268379 68.24514526 104.32128906 70.00537109 C104.32557419 71.21427002 104.32985931 72.42316895 104.33427429 73.66870117 C104.33999323 76.21353532 104.34053592 78.75838581 104.33618164 81.30322266 C104.33301767 85.18078618 104.35652672 89.05758895 104.38183594 92.93505859 C104.38410888 95.41682847 104.38481245 97.89860039 104.38378906 100.38037109 C104.39299881 101.53061768 104.40220856 102.68086426 104.41169739 103.8659668 C104.34447122 115.64559952 100.98101703 125.54684522 93.01660156 134.42724609 C82.75203334 144.19603016 71.56858373 146.78624354 57.89160156 146.52099609 C47.59653908 146.03875473 40.22120238 141.10925355 32.55810547 134.671875 C29.19490842 131.87547273 26.24526443 130.32157473 22.02050781 129.19287109 C22.45556641 131.10326172 22.45556641 131.10326172 22.89941406 133.05224609 C23.88276149 137.96119948 24.47624483 142.8585743 24.98535156 147.83349609 C25.06532379 148.60914917 25.14529602 149.38480225 25.22769165 150.18395996 C25.55829841 153.42477459 25.88332095 156.66600462 26.19506836 159.90869141 C26.42723589 162.30147248 26.67404164 164.69239614 26.92285156 167.08349609 C26.98858871 167.80861389 27.05432587 168.53373169 27.12205505 169.28082275 C27.60898165 173.8449788 28.82930434 177.18494579 31.02050781 181.19287109 C31.02050781 181.85287109 31.02050781 182.51287109 31.02050781 183.19287109 C32.67050781 183.85287109 34.32050781 184.51287109 36.02050781 185.19287109 C35.02050781 188.19287109 35.02050781 188.19287109 33.01269531 189.36083984 C29.0092807 190.47406088 25.28176231 190.52235079 21.14550781 190.50537109 C20.36820312 190.52148438 19.59089844 190.53759766 18.79003906 190.55419922 C13.45685653 190.55868088 9.78288888 189.59946099 5.02050781 187.19287109 C5.02050781 186.53287109 5.02050781 185.87287109 5.02050781 185.19287109 C5.94863281 184.61537109 6.87675781 184.03787109 7.83300781 183.44287109 C11.93123711 180.55000336 13.50474222 177.84528985 14.4703064 172.87969971 C14.84494881 170.10477654 15.13890216 167.33163986 15.40722656 164.54443359 C15.51396194 163.53190521 15.62069733 162.51937683 15.73066711 161.47616577 C16.06740428 158.25775796 16.38792149 155.03797322 16.70800781 151.81787109 C16.93415123 149.62895819 17.1613531 147.44015436 17.38964844 145.25146484 C17.94553389 139.89980285 18.4881295 134.54691986 19.02050781 129.19287109 C17.74076209 129.81444537 16.46308197 130.44027359 15.1862793 131.06787109 C14.11868629 131.58994141 14.11868629 131.58994141 13.02952576 132.12255859 C10.41901656 133.51331801 8.30472593 135.24839302 6.08300781 137.19287109 C1.63667963 140.85615526 -2.55471449 143.29171047 -7.97949219 145.19287109 C-9.19636719 145.62599609 -10.41324219 146.05912109 -11.66699219 146.50537109 C-23.43631476 149.11294556 -34.72424897 145.58594645 -44.66699219 139.44287109 C-52.72642796 133.75720212 -59.20607158 125.63916376 -61.5275116 115.89183044 C-61.99703839 113.08809563 -62.12733043 110.45684878 -62.15649414 107.61499023 C-62.16932938 106.51937271 -62.18216461 105.42375519 -62.19538879 104.29493713 C-62.20277573 103.1178569 -62.21016266 101.94077667 -62.21777344 100.72802734 C-62.22584518 99.50313095 -62.23391693 98.27823456 -62.24223328 97.01622009 C-62.25605689 94.42139086 -62.26678673 91.82654357 -62.2746582 89.23168945 C-62.28614419 86.59686905 -62.30654171 83.9620713 -62.33618164 81.32739258 C-62.59794276 58.04820103 -60.65873447 40.45047766 -44.97949219 22.19287109 C-44.48191406 21.59990234 -43.98433594 21.00693359 -43.47167969 20.39599609 C-32.84376532 8.75335623 -15.80762551 0.24097335 0 0 Z " fill="#B65C34" transform="translate(234.9794921875,198.80712890625)"/>
<path d="M0 0 C13.11309518 10.98479177 24.9110363 23.18777557 35 37 C35.85806152 38.15105017 36.71613451 39.30209177 37.57421875 40.453125 C43.61236829 48.64430614 48.97095521 57.15804105 54 66 C54.36448242 66.63180176 54.72896484 67.26360352 55.10449219 67.91455078 C76.63481855 105.53086237 86.46259735 148.25265288 86.375 191.3125 C86.37445618 192.32201721 86.37391235 193.33153442 86.37335205 194.37164307 C86.33258601 210.88123539 85.42529309 226.79782001 82 243 C81.78037598 244.04188477 81.56075195 245.08376953 81.33447266 246.15722656 C75.65840396 272.17957125 66.14407306 296.83938252 53 320 C50.11965435 316.44641693 47.34260647 312.82502595 44.58520508 309.17626953 C35.29638976 296.90771127 25.4395399 285.30006596 15 274 C16.3979985 270.84298141 18.26546375 268.19474455 20.32519531 265.43432617 C38.98217536 240.36094296 47.46698499 210.60348343 43.25 179.375 C42.86239792 177.24450693 42.44494172 175.11926001 42 173 C41.65001953 171.28296875 41.65001953 171.28296875 41.29296875 169.53125 C37.03896779 151.34976644 27.47442499 135.91947256 16.95071411 120.72711182 C15.02115238 117.94028241 13.10998861 115.14159087 11.20288086 112.33935547 C5.97374663 104.66425006 0.70750463 97.0151628 -4.58494568 89.38360596 C-6.3209491 86.87358034 -8.04387589 84.35479177 -9.76345825 81.83349609 C-10.91081946 80.16382621 -12.07846222 78.50978529 -13.24780273 76.85546875 C-13.91755127 75.87449219 -14.5872998 74.89351563 -15.27734375 73.8828125 C-15.85734131 73.05152832 -16.43733887 72.22024414 -17.03491211 71.36376953 C-18 69 -18 69 -17.26269531 66.32910156 C-15.94930266 63.90648634 -14.48880331 61.81148257 -12.8125 59.625 C-8.20589287 53.17190316 -5.03479849 46.29292661 -2 39 C-1.63519531 38.13117188 -1.27039063 37.26234375 -0.89453125 36.3671875 C2.79376083 25.59668198 2.3004919 11.07575536 0 0 Z " fill="#8FD0E2" transform="translate(426,64)"/>
<path d="M0 0 C1.27498081 2.54996161 0.72200995 3.30295524 0 6 C-1.92800201 28.1891067 3.24871004 47.22263543 17.65625 64.52734375 C19 67 19 67 18.39404297 69.18408203 C16.57446892 72.85955787 14.35924452 76.15145138 12.0390625 79.52734375 C11.5409053 80.26044769 11.04274811 80.99355164 10.52949524 81.74887085 C9.45695998 83.32634603 8.3823499 84.90241214 7.30587769 86.47720337 C5.60958946 88.96005638 3.9201307 91.44742232 2.23266602 93.9362793 C-2.17408888 100.43477009 -6.58819458 106.92824081 -11.00927734 113.41699219 C-13.28434442 116.7577217 -15.54959526 120.1049161 -17.8081665 123.45681763 C-18.62675006 124.66784411 -19.4488226 125.87652166 -20.27484131 127.08248901 C-24.75722833 133.62837218 -28.81019318 140.24961478 -32.37890625 147.3359375 C-32.70206314 147.97650589 -33.02522003 148.61707428 -33.35816956 149.27705383 C-40.45499536 163.79149569 -43.39226224 179.17107088 -43.3125 195.25 C-43.30686035 196.44294678 -43.3012207 197.63589355 -43.29541016 198.86499023 C-43.17479443 207.63112629 -42.4732159 215.54984569 -40 224 C-39.80664062 224.69319336 -39.61328125 225.38638672 -39.4140625 226.10058594 C-35.09713053 241.34974839 -28.32124224 254.69286139 -18.09863281 266.84106445 C-15.52938663 269.95349057 -15 270.76677499 -15 275 C-16.43359375 276.75390625 -16.43359375 276.75390625 -18.4375 278.5625 C-23.45455492 283.34232115 -27.68142544 288.59162842 -32 294 C-32.99623398 295.21839884 -33.99368872 296.43580026 -34.9921875 297.65234375 C-40.85625655 304.83399581 -46.27695346 312.00075569 -51 320 C-68.23989209 300.87135516 -75.93201758 267.62093852 -81 243 C-81.21027832 241.99888184 -81.42055664 240.99776367 -81.63720703 239.96630859 C-87.57772866 210.30132843 -88.21390238 175.66817363 -82 146 C-81.80132324 145.02514648 -81.60264648 144.05029297 -81.39794922 143.04589844 C-69.4130338 85.75171852 -41.19470196 40.65101554 0 0 Z " fill="#8FD0E2" transform="translate(85,64)"/>
<path d="M0 0 C0.86625 0.763125 1.7325 1.52625 2.625 2.3125 C4.07863765 3.54721632 5.53790062 4.77531547 7 6 C8.00804687 6.84691406 9.01609375 7.69382812 10.0546875 8.56640625 C11.20206371 9.50390455 12.35051329 10.44009062 13.5 11.375 C14.01385254 11.80852783 14.52770508 12.24205566 15.05712891 12.6887207 C28.03382678 23.11240676 44.02367806 28.29194907 59.4765625 33.81884766 C63.10155761 35.11660755 66.71902913 36.43379857 70.3359375 37.75390625 C82.07036343 42.0051729 93.78256931 46.03600477 105.86428833 49.19387817 C107.9245179 49.7424238 109.96517193 50.36366447 112 51 C112.33 51.66 112.66 52.32 113 53 C112.32250977 54.62548828 112.32250977 54.62548828 111.19140625 56.5703125 C110.77818115 57.29323486 110.36495605 58.01615723 109.93920898 58.76098633 C109.48489502 59.54111084 109.03058105 60.32123535 108.5625 61.125 C107.62516596 62.77596184 106.69030844 64.42833194 105.7578125 66.08203125 C105.28891602 66.91299316 104.82001953 67.74395508 104.33691406 68.60009766 C90.28933144 93.81699633 80.36404289 121.14022936 73 149 C67.94347275 148.42154126 64.04233508 146.08470982 59.6875 143.625 C58.89569336 143.18019287 58.10388672 142.73538574 57.28808594 142.27709961 C39.33646518 132.02491252 22.8761472 119.32785492 8 105 C7.34064453 104.36787598 6.68128906 103.73575195 6.00195312 103.08447266 C-3.48280646 93.94339511 -12.24418345 84.65249422 -20 74 C-20.43393066 73.41089844 -20.86786133 72.82179688 -21.31494141 72.21484375 C-23.8796868 68.72611186 -26.39585867 65.20806601 -28.85986328 61.64746094 C-29.97010257 60.04320083 -31.09231892 58.44725036 -32.21484375 56.8515625 C-33.19130859 55.40910156 -33.19130859 55.40910156 -34.1875 53.9375 C-34.75855469 53.10089844 -35.32960937 52.26429688 -35.91796875 51.40234375 C-37.2966359 48.34140406 -37.12064955 47.14551418 -36 44 C-26.61405633 27.84797558 -13.15636769 13.15636769 0 0 Z " fill="#A54828" transform="translate(71,337)"/>
<path d="M0 0 C0.96061844 0.00007553 1.92123688 0.00015106 2.91096497 0.00022888 C4.44716743 0.00797081 4.44716743 0.00797081 6.0144043 0.01586914 C7.07273972 0.01728409 8.13107513 0.01869904 9.22148132 0.02015686 C12.59389093 0.0257438 15.96623358 0.03829395 19.33862305 0.05102539 C21.62833563 0.05604208 23.91804925 0.06060469 26.20776367 0.06469727 C31.81390622 0.07570896 37.42000985 0.09243413 43.02612305 0.11352539 C43.02612305 0.77352539 43.02612305 1.43352539 43.02612305 2.11352539 C42.21530273 2.33266602 41.40448242 2.55180664 40.5690918 2.77758789 C31.70500952 5.31607944 22.85205736 8.20063803 16.27612305 14.92602539 C11.63074771 18.05272033 7.35415579 17.61956437 1.85424805 17.82446289 C-10.40287304 18.75000061 -19.34160251 25.49079478 -27.14575195 34.53930664 C-32.57104812 42.17877282 -35.1053493 50.79599095 -35.22387695 60.05102539 C-35.2496582 61.25629883 -35.27543945 62.46157227 -35.30200195 63.70336914 C-34.86970152 68.19620581 -33.52435998 70.66761586 -30.24383545 73.72688293 C-27.31702262 75.51477594 -25.33992563 75.51057034 -21.92016602 75.54589844 C-20.0887204 75.57558968 -20.0887204 75.57558968 -18.22027588 75.60588074 C-16.90662048 75.61227066 -15.59296509 75.61866058 -14.23950195 75.62524414 C-12.87756736 75.6420951 -11.51564828 75.66024591 -10.15374756 75.67964172 C-6.57652636 75.72710328 -2.99936807 75.75693709 0.57806396 75.78308105 C4.23144873 75.81290626 7.88462117 75.85926885 11.5378418 75.90454102 C18.70061931 75.9920906 25.86288373 76.05206565 33.02612305 76.11352539 C33.02612305 94.92352539 33.02612305 113.73352539 33.02612305 133.11352539 C31.37612305 132.45352539 29.72612305 131.79352539 28.02612305 131.11352539 C26.02992138 130.43557011 24.03073604 129.76619009 22.02612305 129.11352539 C22.46118164 131.02391602 22.46118164 131.02391602 22.9050293 132.97290039 C23.88837673 137.88185378 24.48186007 142.7792286 24.9909668 147.75415039 C25.07093903 148.52980347 25.15091125 149.30545654 25.23330688 150.10461426 C25.56391364 153.34542889 25.88893618 156.58665892 26.20068359 159.8293457 C26.43285112 162.22212678 26.67965687 164.61305044 26.9284668 167.00415039 C26.99420395 167.72926819 27.0599411 168.45438599 27.12767029 169.20147705 C27.61459689 173.7656331 28.83491957 177.10560009 31.02612305 181.11352539 C31.02612305 181.77352539 31.02612305 182.43352539 31.02612305 183.11352539 C32.67612305 183.77352539 34.32612305 184.43352539 36.02612305 185.11352539 C35.02612305 188.11352539 35.02612305 188.11352539 33.01831055 189.28149414 C29.01489594 190.39471517 25.28737755 190.44300509 21.15112305 190.42602539 C20.37381836 190.44213867 19.59651367 190.45825195 18.7956543 190.47485352 C13.46247176 190.47933518 9.78850411 189.52011529 5.02612305 187.11352539 C5.02612305 186.45352539 5.02612305 185.79352539 5.02612305 185.11352539 C5.95424805 184.53602539 6.88237305 183.95852539 7.83862305 183.36352539 C11.93685234 180.47065765 13.51035746 177.76594415 14.47592163 172.800354 C14.85056404 170.02543084 15.14451739 167.25229416 15.4128418 164.46508789 C15.51957718 163.45255951 15.62631256 162.44003113 15.73628235 161.39682007 C16.07301951 158.17841226 16.39353672 154.95862751 16.71362305 151.73852539 C16.93976647 149.54961249 17.16696833 147.36080866 17.39526367 145.17211914 C17.95114912 139.82045715 18.49374473 134.46757415 19.02612305 129.11352539 C17.74637732 129.73509967 16.46869721 130.36092788 15.19189453 130.98852539 C14.12430153 131.5105957 14.12430153 131.5105957 13.03514099 132.04321289 C10.4246318 133.43397231 8.31034116 135.16904731 6.08862305 137.11352539 C1.64229486 140.77680956 -2.54909926 143.21236477 -7.97387695 145.11352539 C-9.19075195 145.54665039 -10.40762695 145.97977539 -11.66137695 146.42602539 C-23.43069953 149.03359985 -34.71863374 145.50660074 -44.66137695 139.36352539 C-52.72081273 133.67785641 -59.20045634 125.55981806 -61.52189636 115.81248474 C-61.99142315 113.00874993 -62.12171519 110.37750308 -62.15087891 107.53564453 C-62.16371414 106.44002701 -62.17654938 105.34440948 -62.18977356 104.21559143 C-62.19716049 103.0385112 -62.20454742 101.86143097 -62.2121582 100.64868164 C-62.22022995 99.42378525 -62.2283017 98.19888885 -62.23661804 96.93687439 C-62.25044165 94.34204515 -62.2611715 91.74719787 -62.26904297 89.15234375 C-62.28052895 86.51752335 -62.30092648 83.88272559 -62.33056641 81.24804688 C-62.59232753 57.96885533 -60.65311923 40.37113196 -44.97387695 22.11352539 C-44.47629883 21.52055664 -43.9787207 20.92758789 -43.46606445 20.31665039 C-32.9277947 8.77221418 -15.73098862 -0.04150657 0 0 Z " fill="#A54828" transform="translate(234.973876953125,198.886474609375)"/>
<path d="M0 0 C1.41952217 -0.01058945 1.41952217 -0.01058945 2.86772156 -0.02139282 C42.38370862 -0.24928599 42.38370862 -0.24928599 58.8671875 3.203125 C59.84204102 3.40180176 60.81689453 3.60047852 61.82128906 3.80517578 C85.25252128 8.70656955 112.92720477 15.25712505 132.8671875 29.203125 C132.8671875 29.863125 132.8671875 30.523125 132.8671875 31.203125 C131.23413086 32.63598633 131.23413086 32.63598633 128.95703125 34.28515625 C128.13138672 34.88779297 127.30574219 35.49042969 126.45507812 36.11132812 C125.58044922 36.73974609 124.70582031 37.36816406 123.8046875 38.015625 C122.95712891 38.63244141 122.10957031 39.24925781 121.23632812 39.88476562 C116.46591375 43.35114395 111.67001382 46.78184438 106.8671875 50.203125 C105.98417969 49.67203125 105.10117187 49.1409375 104.19140625 48.59375 C87.47544261 38.69336828 70.15240465 33.03128919 50.6796875 37.265625 C38.87096124 40.76629931 29.64226208 46.62402929 20.609375 54.75 C18.42477318 56.70431615 16.24513098 58.496467 13.8671875 60.203125 C11.13164948 58.92901843 8.90836078 57.55264755 6.6171875 55.59375 C-9.3526479 42.20576165 -26.05813468 34.62859528 -47.19921875 36.02734375 C-59.73251952 37.16673473 -70.90519452 43.17356884 -81.1328125 50.203125 C-81.94117554 49.60624878 -81.94117554 49.60624878 -82.76586914 48.99731445 C-85.24194078 47.16952918 -87.71862223 45.34257191 -90.1953125 43.515625 C-91.04287109 42.88978516 -91.89042969 42.26394531 -92.76367188 41.61914062 C-97.52593441 38.10720185 -102.30720583 34.62753787 -107.1328125 31.203125 C-106.1328125 28.203125 -106.1328125 28.203125 -102.7578125 26.2578125 C-101.22331125 25.51623641 -99.68088671 24.79093312 -98.1328125 24.078125 C-97.29194092 23.68778076 -96.45106934 23.29743652 -95.5847168 22.89526367 C-71.23563128 11.8576303 -45.63496732 4.60465709 -19.1328125 1.203125 C-18.13200401 1.07213158 -18.13200401 1.07213158 -17.11097717 0.93849182 C-11.39460774 0.24225009 -5.75538618 0.02856336 0 0 Z " fill="#8FD0E2" transform="translate(243.1328125,-0.203125)"/>
<path d="M0 0 C0.84833405 -0.00960754 1.69666809 -0.01921509 2.57070923 -0.02911377 C3.48113983 -0.03336365 4.39157043 -0.03761353 5.32958984 -0.04199219 C6.75046402 -0.0505423 6.75046402 -0.0505423 8.20004272 -0.05926514 C10.20561612 -0.06870546 12.21120497 -0.07524527 14.21679688 -0.07910156 C17.25858332 -0.0887657 20.29968182 -0.11978125 23.34130859 -0.15136719 C25.29573169 -0.15790204 27.2501596 -0.16315062 29.20458984 -0.16699219 C30.10287506 -0.17933899 31.00116028 -0.19168579 31.92666626 -0.20440674 C43.98231257 -0.16268831 54.57714998 4.17493061 63.41552734 12.41113281 C72.63403225 22.32537393 76.36723634 33.84962434 76.01708984 47.26660156 C75.41775624 52.2011149 73.41903884 54.78078655 69.60604858 57.78233337 C65.47288122 59.72036013 61.81815651 59.60391243 57.3046875 59.59692383 C55.90131386 59.61203758 55.90131386 59.61203758 54.46958923 59.62745667 C51.38113408 59.65592038 48.29316794 59.6618124 45.20458984 59.66503906 C43.05373942 59.67468109 40.90289097 59.68477364 38.75204468 59.69529724 C34.24464355 59.71325453 29.73741485 59.71881865 25.22998047 59.71704102 C19.46055513 59.71673616 13.69223753 59.75769603 7.92307472 59.80935764 C3.48087508 59.84275032 -0.9610576 59.8487977 -5.4033699 59.84721184 C-7.53001347 59.85074717 -9.6566643 59.8639901 -11.78318405 59.88720894 C-14.76118821 59.91668151 -17.73679917 59.90795275 -20.71484375 59.88989258 C-22.02584297 59.91518036 -22.02584297 59.91518036 -23.36332703 59.940979 C-28.98217536 59.85460325 -31.93148276 58.58628544 -36.04375648 54.7409811 C-40.02802746 49.86419732 -38.76605945 42.03314463 -38.33447266 36.16113281 C-35.91979691 24.59828552 -29.60977478 14.49509263 -20.33447266 7.16113281 C-13.83876864 3.32048519 -7.63739139 0.0702227 0 0 Z " fill="#516565" transform="translate(237.33447265625,215.8388671875)"/>
<path d="M0 0 C11.04958815 9.36145663 20.19993489 22.60906979 23.25 36.90625 C23.41838379 37.51283447 23.58676758 38.11941895 23.76025391 38.74438477 C28.23130883 58.48077128 21.42321044 77.32199751 11.25 93.90625 C9.04775715 97.03094174 6.7542735 100.01850962 4.25 102.90625 C0.68965848 98.61280324 -2.43984047 94.08512595 -5.5703125 89.4765625 C-6.13477081 88.64859161 -6.69922913 87.82062073 -7.28079224 86.96755981 C-11.58274182 80.64760077 -15.85351836 74.30676264 -20.1171875 67.9609375 C-20.73337952 67.04387024 -21.34957153 66.12680298 -21.98443604 65.1819458 C-24.50673327 61.42686851 -27.02871094 57.67159111 -29.54589844 53.91308594 C-31.42084907 51.11452372 -33.29993733 48.31877743 -35.1796875 45.5234375 C-36.01583084 44.27166214 -36.01583084 44.27166214 -36.86886597 42.99459839 C-43.28924743 33.37780745 -43.28924743 33.37780745 -50.9591217 24.77449036 C-52.75 22.90625 -52.75 22.90625 -52.7434082 20.86547852 C-51.48453939 18.38270088 -50.07576456 17.23587033 -47.85546875 15.55859375 C-47.06462891 14.95337891 -46.27378906 14.34816406 -45.45898438 13.72460938 C-44.62689453 13.10392578 -43.79480469 12.48324219 -42.9375 11.84375 C-42.11701172 11.21919922 -41.29652344 10.59464844 -40.45117188 9.95117188 C-38.22487416 8.25933006 -35.98986474 6.58006694 -33.75 4.90625 C-33.04270752 4.34494385 -32.33541504 3.7836377 -31.60668945 3.20532227 C-29.75 1.90625 -29.75 1.90625 -27.75 1.90625 C-27.42 0.91625 -27.09 -0.07375 -26.75 -1.09375 C-17.53086747 -6.54141922 -8.63782689 -6.35840035 0 0 Z " fill="#B75C34" transform="translate(403.75,29.09375)"/>
<path d="M0 0 C0 0.66 0 1.32 0 2 C0.85150635 2.39856201 0.85150635 2.39856201 1.72021484 2.80517578 C5.98268747 5.03911678 9.75076449 8.03582144 13.625 10.875 C14.49640625 11.50019531 15.3678125 12.12539063 16.265625 12.76953125 C17.09835938 13.37925781 17.93109375 13.98898438 18.7890625 14.6171875 C19.54912598 15.17003418 20.30918945 15.72288086 21.09228516 16.29248047 C23.08147311 18.07292333 23.99111018 19.55098515 25 22 C24.53851563 22.47566406 24.07703125 22.95132813 23.6015625 23.44140625 C19.49150447 27.85200212 15.90903759 32.44117419 12.62109375 37.48828125 C11.73953775 38.82551327 10.85733689 40.16232032 9.97460938 41.4987793 C9.26111328 42.58103287 9.26111328 42.58103287 8.53320312 43.68515015 C5.71203405 47.9445876 2.85242439 52.17815895 -0.00390625 56.4140625 C-0.6177417 57.32480026 -1.23157715 58.23553802 -1.86401367 59.1738739 C-3.12584718 61.04574553 -4.38789339 62.91747378 -5.65014648 64.7890625 C-7.56386039 67.6270174 -9.47628813 70.46583615 -11.38867188 73.3046875 C-17.86511328 82.91261927 -24.36565791 92.50019854 -31 102 C-35.10736844 100.63087719 -36.52345203 97.84347649 -38.8125 94.375 C-39.25464844 93.70782959 -39.69679688 93.04065918 -40.15234375 92.35327148 C-48.02806099 80.06905243 -52.40023549 66.79420571 -52.3125 52.1875 C-52.30686035 51.20990723 -52.3012207 50.23231445 -52.29541016 49.22509766 C-52.03150664 33.57640321 -46.14080877 20.85233768 -36 9 C-35.34773438 8.20335937 -34.69546875 7.40671875 -34.0234375 6.5859375 C-29.1532912 0.81321582 -25.14452695 -2.9052193 -17.6875 -4.875 C-11.25791546 -5.09295202 -4.91209091 -4.47169655 0 0 Z " fill="#A54828" transform="translate(136,29)"/>
<path d="M0 0 C14.52 0 29.04 0 44 0 C44 18.81 44 37.62 44 57 C42.35 56.34 40.7 55.68 39 55 C37.00379834 54.32204472 35.00461299 53.65266469 33 53 C33.29003906 54.27359375 33.58007812 55.5471875 33.87890625 56.859375 C34.86225368 61.76832839 35.45573702 66.66570321 35.96484375 71.640625 C36.04481598 72.41627808 36.12478821 73.19193115 36.20718384 73.99108887 C36.5377906 77.2319035 36.86281313 80.47313353 37.17456055 83.71582031 C37.40672808 86.10860139 37.65353383 88.49952505 37.90234375 90.890625 C37.9680809 91.6157428 38.03381805 92.3408606 38.10154724 93.08795166 C38.58847384 97.65210771 39.80879653 100.9920747 42 105 C42 105.66 42 106.32 42 107 C43.65 107.66 45.3 108.32 47 109 C46 112 46 112 43.9921875 113.16796875 C39.98877289 114.28118978 36.2612545 114.3294797 32.125 114.3125 C31.34769531 114.32861328 30.57039063 114.34472656 29.76953125 114.36132812 C24.43634872 114.36580979 20.76238106 113.4065899 16 111 C16 110.34 16 109.68 16 109 C17.3921875 108.13375 17.3921875 108.13375 18.8125 107.25 C22.91072929 104.35713226 24.48423441 101.65241876 25.44979858 96.68682861 C25.824441 93.91190545 26.11839434 91.13876877 26.38671875 88.3515625 C26.54682182 86.83276993 26.54682182 86.83276993 26.7101593 85.28329468 C27.04689647 82.06488687 27.36741367 78.84510212 27.6875 75.625 C27.91364342 73.43608709 28.14084529 71.24728326 28.36914062 69.05859375 C28.92502607 63.70693176 29.46762169 58.35404876 30 53 C28.71403025 53.63409503 27.429066 54.27022955 26.14453125 54.90722656 C25.42885986 55.26125549 24.71318848 55.61528442 23.97583008 55.9800415 C21.84413744 57.08045901 19.91872734 58.31095449 18 59.75 C17.01 60.4925 16.02 61.235 15 62 C5.89596959 52.84975624 -0.11533093 43.03858521 -0.11315918 29.91467285 C-0.10548523 28.78708557 -0.10548523 28.78708557 -0.09765625 27.63671875 C-0.09664917 26.93405884 -0.09564209 26.23139893 -0.09460449 25.50744629 C-0.08940101 22.90078075 -0.07543987 20.29413861 -0.0625 17.6875 C-0.0315625 8.9321875 -0.0315625 8.9321875 0 0 Z " fill="#A5492A" transform="translate(224,275)"/>
<path d="M0 0 C1.32091644 0.0001133 1.32091644 0.0001133 2.66851807 0.00022888 C3.61031921 0.00539017 4.55212036 0.01055145 5.52246094 0.01586914 C6.97891022 0.01799156 6.97891022 0.01799156 8.46478271 0.02015686 C11.56216529 0.02574876 14.65947525 0.0382998 17.75683594 0.05102539 C19.85839739 0.05604144 21.95995998 0.06060416 24.06152344 0.06469727 C29.20998886 0.07571554 34.35840009 0.09297465 39.50683594 0.11352539 C37.32331353 2.29704779 36.46488287 2.49500339 33.56933594 3.23852539 C22.06229162 6.96302766 14.63691892 15.18524109 9.19433594 25.63305664 C5.60484556 33.94621665 4.47429274 44.87366631 7.78417969 53.40649414 C9.49381233 56.09305972 10.94556096 57.31227266 13.50683594 59.11352539 C7.36884068 59.2623114 1.23190443 59.37094955 -4.9074707 59.44311523 C-6.99391983 59.47321058 -9.08024324 59.51409765 -11.16625977 59.56616211 C-14.1726793 59.63929705 -17.17742075 59.6730543 -20.18457031 59.69946289 C-21.1108876 59.7304306 -22.0372049 59.76139832 -22.99159241 59.79330444 C-28.84512918 59.79631761 -31.95388926 58.74945778 -36.22666931 54.69839478 C-40.16291805 49.77264194 -38.9262245 42.00558711 -38.49316406 36.11352539 C-36.07848832 24.5506781 -29.76846618 14.44748521 -20.49316406 7.11352539 C-13.92623376 3.23076454 -7.72181846 -0.02218913 0 0 Z " fill="#384948" transform="translate(237.4931640625,215.886474609375)"/>
<path d="M0 0 C5.29151763 0.69279463 8.13856274 2.33576981 12.125 5.75 C23.44821486 14.83021066 33.80282477 16.81496573 48 17 C47.66684156 20.985619 47.31198822 24.96868426 46.93798828 28.95068359 C46.81402429 30.30205212 46.69572927 31.65395434 46.58349609 33.00634766 C45.35147577 47.75788303 45.35147577 47.75788303 41 54 C36.07838841 57.70585635 30.91680417 57.45331064 25 57.375 C23.68515625 57.39240234 23.68515625 57.39240234 22.34375 57.41015625 C17.22525649 57.38703053 13.22463295 57.18104802 9 54 C4.97590172 48.17619824 4.15002481 42.055582 3.515625 35.15625 C3.41030457 34.14655151 3.30498413 33.13685303 3.19647217 32.09655762 C2.86631146 28.89899671 2.55783783 25.69977915 2.25 22.5 C2.02877767 20.3201665 1.80613576 18.14047657 1.58203125 15.9609375 C1.03825708 10.6421754 0.51222929 5.3218877 0 0 Z " fill="#FEF7EF" transform="translate(257,328)"/>
<path d="M0 0 C-0.45156005 10.75958599 -1.33910626 21.46944389 -2.375 32.1875 C-2.48884033 33.45231201 -2.60268066 34.71712402 -2.7199707 36.02026367 C-2.84073975 37.22400635 -2.96150879 38.42774902 -3.0859375 39.66796875 C-3.2413501 41.28094849 -3.2413501 41.28094849 -3.39990234 42.92651367 C-4.56948633 48.91670604 -6.96227662 52.59953672 -12 56 C-16.26296656 57.42098885 -20.346017 57.26461062 -24.8125 57.3125 C-26.14764648 57.35600586 -26.14764648 57.35600586 -27.50976562 57.40039062 C-33.17523403 57.45498743 -36.61072273 56.94564435 -41 53 C-43.58679217 49.33294385 -44.47560052 46.44125519 -44.94921875 42 C-45.07490234 40.865625 -45.20058594 39.73125 -45.33007812 38.5625 C-45.44802734 37.386875 -45.56597656 36.21125 -45.6875 35 C-45.81705078 33.824375 -45.94660156 32.64875 -46.08007812 31.4375 C-46.59921851 26.60317684 -47.07883507 21.86652774 -47 17 C-46.28457031 17.04640625 -45.56914062 17.0928125 -44.83203125 17.140625 C-29.34848193 17.70147802 -18.57532411 11.82343047 -6.8828125 2.453125 C-4.28373327 0.44719663 -3.35741071 0 0 0 Z " fill="#FEF7EE" transform="translate(254,328)"/>
<path d="M0 0 C6.74437399 3.96727882 11.28128677 9.57392562 13.62109375 17.0859375 C14.74161019 26.09106349 12.72807314 33.13473663 7.37109375 40.3984375 C2.67386086 44.98891509 -1.75611649 47.28073982 -8.37890625 47.5859375 C-15.18669029 47.26225452 -20.065854 44.80243955 -24.69140625 39.8359375 C-29.86652926 33.19429461 -31.3235644 26.41489528 -30.37890625 18.0859375 C-28.81131796 10.37509779 -23.89202734 4.70035319 -17.69140625 0.0859375 C-11.91128294 -1.65900539 -5.73054561 -2.20188452 0 0 Z " fill="#3A4A48" transform="translate(370.37890625,140.9140625)"/>
<path d="M0 0 C6.56087047 3.60204653 10.72393367 7.58233993 13.1875 14.75 C14.09021195 22.13199027 14.30035645 30.2682545 10.1875 36.75 C5.89040215 42.23518434 1.12137851 46.03623819 -5.97265625 47.0625 C-11.71671108 47.3777826 -16.15742456 46.14669122 -20.8125 42.75 C-25.87198328 37.97934549 -29.42048374 33.56532103 -30.1484375 26.48046875 C-30.24941131 17.32214377 -29.41247518 11.79997208 -23.3125 4.9375 C-16.43482183 -1.0804684 -8.94598321 -3.61771629 0 0 Z " fill="#394948" transform="translate(155.8125,141.25)"/>
<path d="M0 0 C6.6 0 13.2 0 20 0 C20.26634603 7.49245976 20.50684403 14.98489759 20.70202446 22.47953415 C20.79368973 25.95976487 20.89660802 29.43889806 21.02539062 32.91796875 C21.17298988 36.91877798 21.27136546 40.91948855 21.3671875 44.921875 C21.44644974 46.79392609 21.44644974 46.79392609 21.52731323 48.70379639 C21.67641188 57.15790222 21.67641188 57.15790222 19.63775635 59.69592285 C17.97705078 60.81738281 17.97705078 60.81738281 15 62 C5.90859423 52.86244496 -0.11467096 43.05343682 -0.11329651 29.94474792 C-0.10813522 29.1830983 -0.10297394 28.42144867 -0.09765625 27.63671875 C-0.0962413 26.84473587 -0.09482635 26.05275299 -0.09336853 25.23677063 C-0.08779457 22.72030781 -0.07524693 20.20393569 -0.0625 17.6875 C-0.05748163 15.97591275 -0.05291931 14.26432409 -0.04882812 12.55273438 C-0.03868681 8.36842698 -0.01910646 4.18431438 0 0 Z " fill="#B65B33" transform="translate(224,275)"/>
<path d="M0 0 C7.27772577 1.02419698 12.64722972 4.16997208 17.78222656 9.35595703 C21.0370684 13.75012402 20.23165144 19.57600322 20.02978516 24.76904297 C19.97690083 28.73016547 20.4351136 32.63073605 20.875 36.5625 C20.94227295 37.29984375 21.0095459 38.0371875 21.07885742 38.796875 C21.66572741 44.36991928 22.79172685 49.7155795 26.8125 53.875 C29.51537408 55.26504953 31.99525675 55.6585519 35 56 C35 56.33 35 56.66 35 57 C31.79184155 57.08774066 28.58399538 57.14063706 25.375 57.1875 C24.01955078 57.22520508 24.01955078 57.22520508 22.63671875 57.26367188 C17.39648535 57.32104669 13.32101006 57.30239358 9 54 C4.98210227 48.168543 4.15046344 42.06035218 3.515625 35.15625 C3.41030457 34.14655151 3.30498413 33.13685303 3.19647217 32.09655762 C2.86631146 28.89899671 2.55783783 25.69977915 2.25 22.5 C2.02877767 20.3201665 1.80613576 18.14047657 1.58203125 15.9609375 C1.03825708 10.6421754 0.51222929 5.3218877 0 0 Z " fill="#F6E8DA" transform="translate(257,328)"/>
<path d="M0 0 C5.34563929 1.97986641 8.11645631 6.44618178 10.8125 11.1875 C13.20382428 18.86490954 12.83640384 25.78278482 9.22265625 32.984375 C7.41742064 35.96041837 5.36011755 38.44320599 3 41 C0.875 41 0.875 41 -2 40 C-7.66515909 34.32098966 -9.95460754 28.12427102 -10.4375 20.1875 C-10.28652232 13.11311711 -7.12599262 6.88404251 -2.1875 1.875 C-1.465625 1.25625 -0.74375 0.6375 0 0 Z " fill="#526665" transform="translate(372,143)"/>
<path d="M0 0 C5.28 0 10.56 0 16 0 C16.268125 1.7325 16.53625 3.465 16.8125 5.25 C16.998125 6.42046875 17.18375 7.5909375 17.375 8.796875 C17.85416935 11.90541032 18.25108543 15.01774592 18.625 18.140625 C18.7386792 19.02588867 18.8523584 19.91115234 18.96948242 20.82324219 C19.19489023 22.58222525 19.40390274 24.3434016 19.5949707 26.10644531 C20.16535692 30.39507616 20.65754193 32.5655133 23.3984375 36.04296875 C26.34234448 38.2575294 28.35892347 38.74597141 32 39 C32 39.33 32 39.66 32 40 C28.79197767 40.11698258 25.58450975 40.18750607 22.375 40.25 C21.47136719 40.28351563 20.56773437 40.31703125 19.63671875 40.3515625 C13.91116554 40.43514722 10.43164488 40.00893414 6 36 C3.41414248 32.33219538 2.52442818 29.44152429 2.05078125 25 C1.92509766 23.865625 1.79941406 22.73125 1.66992188 21.5625 C1.55197266 20.386875 1.43402344 19.21125 1.3125 18 C1.18294922 16.824375 1.05339844 15.64875 0.91992188 14.4375 C0.39794159 9.57673118 0 4.89670192 0 0 Z " fill="#F6E9DA" transform="translate(207,345)"/>
<path d="M0 0 C5.72100204 3.06007086 8.94189147 6.78169772 11 13 C11.88937911 20.34157286 12.15361224 28.56906242 8 35 C5.82036049 37.52353819 3.50617111 39.80280889 1 42 C-4.38340795 37.7080227 -8.58049066 33.99964952 -10 27 C-10.83086512 18.24030778 -10.18115056 11.29562012 -5 4 C-2.1875 1.375 -2.1875 1.375 0 0 Z " fill="#516565" transform="translate(158,143)"/>
</svg>
