<svg xmlns="http://www.w3.org/2000/svg" viewBox="0 0 900 600" width="900" height="600">
  <defs>
    <linearGradient id="water-up" x1="0" y1="0" x2="0" y2="1">
      <stop offset="0%" stop-color="#3a6e5e"/>
      <stop offset="100%" stop-color="#2a4a3a"/>
    </linearGradient>
    <linearGradient id="water-down" x1="0" y1="0" x2="0" y2="1">
      <stop offset="0%" stop-color="#4a7a6a"/>
      <stop offset="100%" stop-color="#3a6a5a"/>
    </linearGradient>
    <linearGradient id="sky" x1="0" y1="0" x2="0" y2="1">
      <stop offset="0%" stop-color="#c8cfc8"/>
      <stop offset="100%" stop-color="#a0b0a0"/>
    </linearGradient>
    <linearGradient id="mud" x1="0" y1="0" x2="0" y2="1">
      <stop offset="0%" stop-color="#5a4a30"/>
      <stop offset="100%" stop-color="#3a2a18"/>
    </linearGradient>
    <filter id="ripple">
      <feTurbulence type="fractalNoise" baseFrequency="0.01 0.04" numOctaves="2" result="n"/>
      <feDisplacementMap in="SourceGraphic" in2="n" scale="3"/>
    </filter>
  </defs>
  <!-- 天空 -->
  <rect width="900" height="180" fill="url(#sky)"/>
  <!-- 远处树林 -->
  <g fill="#2a4a2a">
    <polygon points="50,180 60,80 70,180"/>
    <polygon points="80,180 92,60 104,180"/>
    <polygon points="120,180 135,50 150,180"/>
    <polygon points="170,180 180,70 190,180"/>
    <polygon points="210,180 225,45 240,180"/>
    <polygon points="260,180 270,65 280,180"/>
    <polygon points="300,180 315,40 330,180"/>
    <polygon points="350,180 360,55 370,180"/>
    <polygon points="390,180 405,35 420,180"/>
    <polygon points="440,180 450,60 460,180"/>
    <polygon points="480,180 495,42 510,180"/>
    <polygon points="530,180 540,58 550,180"/>
    <polygon points="560,180 575,38 590,180"/>
    <polygon points="610,180 620,52 630,180"/>
    <polygon points="650,180 665,30 680,180"/>
    <polygon points="700,180 710,48 720,180"/>
    <polygon points="740,180 755,36 770,180"/>
    <polygon points="790,180 800,55 810,180"/>
    <polygon points="830,180 845,42 860,180"/>
    <polygon points="870,180 882,60 894,180"/>
  </g><g fill="#1e3a1e">
    <polygon points="65,180 78,90 91,180"/>
    <polygon points="140,180 155,55 170,180"/>
    <polygon points="245,180 258,48 271,180"/>
    <polygon points="335,180 348,62 361,180"/>
    <polygon points="425,180 440,38 455,180"/>
    <polygon points="505,180 518,52 531,180"/>
    <polygon points="595,180 610,44 625,180"/>
    <polygon points="685,180 698,56 711,180"/>
    <polygon points="775,180 790,40 805,180"/>
    <polygon points="845,180 858,50 871,180"/>
  </g>
  <!-- 草地岸边 -->
  <rect x="0" y="170" width="900" height="30" fill="#7a8a40"/>
  <!-- 上游蓄水 -->
  <path d="M0,200 L900,200 L900,320 Q700,310 450,315 Q200,320 0,310Z" fill="url(#water-up)"/>
  <g opacity="0.15" stroke="#a0c0b0" stroke-width="1" fill="none">
    <path d="M50,220Q150,218 250,220"/><path d="M300,230Q400,228 500,230"/>
    <path d="M550,215Q650,213 750,215"/><path d="M100,250Q250,248 400,250"/>
    <path d="M500,245Q620,243 740,245"/><path d="M150,270Q300,268 450,270"/>
    <path d="M550,265Q700,263 850,265"/><path d="M80,285Q200,283 320,285"/>
  </g>
  <!-- 水中倒影枯枝 -->
  <g opacity="0.3" stroke="#3a3020" stroke-width="1.5" stroke-linecap="round">
    <line x1="200" y1="210" x2="220" y2="260"/>
    <line x1="350" y1="205" x2="340" y2="250"/>
    <line x1="500" y1="208" x2="510" y2="255"/>
    <line x1="650" y1="210" x2="640" y2="248"/>
    <line x1="280" y1="215" x2="290" y2="258"/>
    <line x1="750" y1="212" x2="745" y2="252"/>
  </g>
  <!-- 坝体泥土 -->
  <path d="M0,340 Q200,300 450,295 Q700,300 900,340 L900,420 Q700,395 450,390 Q200,395 0,420Z" fill="url(#mud)"/>
  <path d="M30,350 Q200,310 450,305 Q700,310 870,350 L870,410 Q700,388 450,382 Q200,388 30,410Z" fill="#4a3a22" opacity="0.6"/>
  <!-- ===== 大量树枝 ===== -->
  <g stroke-linecap="round" fill="none">
    <!-- 底层粗枝 -->
    <g stroke="#3a2a15" stroke-width="5">
      <line x1="40" y1="380" x2="250" y2="340"/><line x1="100" y1="390" x2="350" y2="330"/>
      <line x1="200" y1="395" x2="450" y2="335"/><line x1="350" y1="390" x2="600" y2="340"/>
      <line x1="500" y1="395" x2="750" y2="335"/><line x1="650" y1="390" x2="870" y2="350"/>
      <line x1="400" y1="385" x2="200" y2="345"/><line x1="700" y1="375" x2="500" y2="335"/>
      <line x1="800" y1="385" x2="600" y2="345"/><line x1="80" y1="370" x2="300" y2="350"/>
      <line x1="550" y1="380" x2="350" y2="340"/>
    </g>
    <!-- 中层主枝 -->
    <g stroke="#6a5a3a" stroke-width="4">
      <line x1="20" y1="350" x2="200" y2="310"/><line x1="80" y1="360" x2="280" y2="300"/>
      <line x1="150" y1="365" x2="380" y2="295"/><line x1="250" y1="370" x2="480" y2="300"/>
      <line x1="350" y1="365" x2="550" y2="295"/><line x1="450" y1="370" x2="650" y2="300"/>
      <line x1="550" y1="365" x2="750" y2="295"/><line x1="650" y1="360" x2="850" y2="300"/>
      <line x1="750" y1="365" x2="880" y2="320"/>
      <line x1="300" y1="300" x2="100" y2="360"/><line x1="450" y1="295" x2="250" y2="365"/>
      <line x1="600" y1="300" x2="400" y2="360"/><line x1="750" y1="295" x2="550" y2="365"/>
      <line x1="850" y1="310" x2="700" y2="370"/>
    </g>
    <!-- 中层浅色枝 -->
    <g stroke="#8a7a5a" stroke-width="3.5">
      <line x1="60" y1="340" x2="220" y2="295"/><line x1="130" y1="350" x2="320" y2="290"/>
      <line x1="220" y1="355" x2="420" y2="288"/><line x1="310" y1="350" x2="500" y2="285"/>
      <line x1="400" y1="355" x2="580" y2="290"/><line x1="490" y1="350" x2="680" y2="288"/>
      <line x1="580" y1="345" x2="760" y2="285"/><line x1="670" y1="350" x2="840" y2="295"/>
      <line x1="250" y1="290" x2="80" y2="350"/><line x1="400" y1="285" x2="200" y2="355"/>
      <line x1="550" y1="288" x2="370" y2="350"/><line x1="700" y1="285" x2="520" y2="350"/>
      <line x1="830" y1="295" x2="680" y2="348"/>
    </g>
    <!-- 上层突出枝 -->
    <g stroke="#9a8a65" stroke-width="3">
      <line x1="100" y1="320" x2="250" y2="280"/><line x1="180" y1="325" x2="350" y2="275"/>
      <line x1="270" y1="320" x2="430" y2="272"/><line x1="360" y1="318" x2="520" y2="270"/>
      <line x1="450" y1="322" x2="610" y2="272"/><line x1="540" y1="318" x2="700" y2="270"/>
      <line x1="630" y1="320" x2="790" y2="275"/><line x1="720" y1="318" x2="860" y2="280"/>
      <line x1="200" y1="278" x2="60" y2="330"/><line x1="350" y1="272" x2="180" y2="328"/>
      <line x1="500" y1="270" x2="330" y2="325"/><line x1="650" y1="272" x2="480" y2="322"/>
      <line x1="800" y1="275" x2="640" y2="325"/></g>
    <!-- 顶部突出枝条 -->
    <g stroke="#7a6a48" stroke-width="2.5">
      <line x1="120" y1="310" x2="160" y2="260"/><line x1="200" y1="305" x2="230" y2="255"/>
      <line x1="280" y1="300" x2="260" y2="250"/><line x1="350" y1="298" x2="370" y2="248"/>
      <line x1="420" y1="295" x2="400" y2="245"/><line x1="500" y1="292" x2="520" y2="242"/>
      <line x1="570" y1="295" x2="550" y2="245"/><line x1="640" y1="292" x2="660" y2="242"/>
      <line x1="710" y1="295" x2="690" y2="248"/><line x1="780" y1="298" x2="800" y2="252"/>
      <line x1="830" y1="305" x2="850" y2="260"/>
    </g>
    <!-- 细交叉枝 -->
    <g stroke="#a09070" stroke-width="2">
      <line x1="90" y1="335" x2="180" y2="295"/><line x1="160" y1="340" x2="260" y2="290"/>
      <line x1="240" y1="338" x2="340" y2="285"/><line x1="320" y1="335" x2="420" y2="282"/>
      <line x1="400" y1="338" x2="500" y2="280"/><line x1="480" y1="335" x2="570" y2="282"/>
      <line x1="560" y1="332" x2="660" y2="280"/><line x1="640" y1="335" x2="740" y2="282"/>
      <line x1="720" y1="332" x2="810" y2="285"/><line x1="800" y1="335" x2="870" y2="295"/>
      <line x1="150" y1="290" x2="100" y2="340"/><line x1="300" y1="285" x2="230" y2="340"/>
      <line x1="450" y1="280" x2="380" y2="338"/><line x1="600" y1="280" x2="530" y2="335"/>
      <line x1="750" y1="282" x2="680" y2="335"/><line x1="860" y1="290" x2="810" y2="335"/></g>
    <!-- 最细小枝 -->
    <g stroke="#b0a080" stroke-width="1.5">
      <line x1="140" y1="300" x2="170" y2="270"/><line x1="210" y1="295" x2="195" y2="265"/>
      <line x1="290" y1="292" x2="310" y2="260"/><line x1="370" y1="290" x2="355" y2="258"/>
      <line x1="440" y1="288" x2="460" y2="255"/><line x1="510" y1="286" x2="495" y2="254"/>
      <line x1="590" y1="288" x2="610" y2="256"/><line x1="660" y1="286" x2="645" y2="254"/>
      <line x1="730" y1="288" x2="750" y2="258"/><line x1="800" y1="292" x2="785" y2="262"/>
    </g>
    <!-- 额外散落粗枝 -->
    <g stroke="#5a4a2a" stroke-width="3">
      <line x1="50" y1="375" x2="180" y2="330"/><line x1="300" y1="375" x2="150" y2="325"/>
      <line x1="420" y1="370" x2="280" y2="320"/><line x1="560" y1="372" x2="420" y2="318"/>
      <line x1="700" y1="370" x2="560" y2="320"/><line x1="830" y1="375" x2="700" y2="325"/>
    </g>
    <!-- 顶部突出+分叉 -->
    <g stroke="#8a7a55" stroke-width="2">
      <line x1="150" y1="290" x2="130" y2="240"/><line x1="250" y1="285" x2="270" y2="235"/>
      <line x1="340" y1="282" x2="320" y2="232"/><line x1="450" y1="278" x2="470" y2="228"/>
      <line x1="530" y1="280" x2="510" y2="230"/><line x1="620" y1="278" x2="640" y2="228"/>
      <line x1="700" y1="280" x2="680" y2="235"/><line x1="790" y1="285" x2="810" y2="238"/>
    </g>
    <g stroke="#9a8a60" stroke-width="1.2">
      <line x1="130" y1="240" x2="115" y2="220"/><line x1="130" y1="240" x2="145" y2="222"/>
      <line x1="270" y1="235" x2="255" y2="215"/><line x1="270" y1="235" x2="285" y2="218"/>
      <line x1="470" y1="228" x2="455" y2="208"/><line x1="470" y1="228" x2="485" y2="212"/>
      <line x1="640" y1="228" x2="625" y2="208"/><line x1="640" y1="228" x2="655" y2="212"/>
      <line x1="810" y1="238" x2="795" y2="218"/><line x1="810" y1="238" x2="825" y2="222"/>
    </g>
  </g>
  <!-- 下游流水 -->
  <path d="M0,420 Q200,395 450,390 Q700,395 900,420 L900,600 L0,600Z" fill="url(#water-down)"/>
  <!-- 渗水 -->
  <g opacity="0.5" stroke="#6a9a8a" fill="none">
    <path d="M390,390Q410,430 400,470Q390,510 400,560Q405,580 395,600" stroke-width="8" opacity="0.4"/>
    <path d="M430,388Q450,425 440,465Q430,500 445,540Q450,570 440,600" stroke-width="10" opacity="0.35"/>
    <path d="M470,392Q485,430 475,470Q468,505 480,545Q485,575 475,600" stroke-width="7" opacity="0.3"/></g>
  <!-- 下游波纹 -->
  <g opacity="0.2" stroke="#a0d0c0" stroke-width="1.5" fill="none" filter="url(#ripple)">
    <path d="M50,440Q200,435 350,440Q500,445 650,440"/>
    <path d="M200,465Q350,460 500,465Q650,470 800,465"/>
    <path d="M80,490Q230,485 380,490Q530,495 680,490"/>
    <path d="M300,515Q450,510 600,515Q750,520 850,515"/>
    <path d="M50,540Q200,535 350,540"/><path d="M500,545Q650,540 800,545"/>
    <path d="M100,570Q250,565 400,570"/><path d="M500,575Q650,570 800,575"/>
  </g>
  <!-- 两岸 -->
  <path d="M0,300Q0,360 0,420L0,600 30,600 30,400Q30,350 50,320Q30,310 0,300Z" fill="#5a6a30"/>
  <path d="M900,300Q900,360 900,420L900,600 870,600 870,400Q870,350 850,320Q870,310 900,300Z" fill="#5a6a30"/>
  <ellipse cx="15" cy="360" rx="25" ry="40" fill="#4a6a25"/>
  <ellipse cx="885" cy="360" rx="25" ry="40" fill="#4a6a25"/>
  <!-- 石头 -->
  <ellipse cx="820" cy="395" rx="35" ry="18" fill="#8a8070"/>
  <ellipse cx="823" cy="392" rx="30" ry="14" fill="#9a9080"/>
  <ellipse cx="75" cy="402" rx="25" ry="14" fill="#7a7060"/>
  <!-- 坝下散落小枝 -->
  <g stroke="#7a6a45" stroke-width="2" stroke-linecap="round" fill="none">
    <line x1="350" y1="400" x2="390" y2="415"/><line x1="420" y1="398" x2="460" y2="418"/>
    <line x1="480" y1="402" x2="520" y2="420"/><line x1="370" y1="410" x2="410" y2="430"/>
    <line x1="440" y1="408" x2="490" y2="428"/><line x1="500" y1="412" x2="540" y2="432"/>
  </g>
</svg>